<?xml version="1.0" encoding="utf-8" standalone="no"?>
<!DOCTYPE svg PUBLIC "-//W3C//DTD SVG 1.1//EN"
  "http://www.w3.org/Graphics/SVG/1.1/DTD/svg11.dtd">
<svg xmlns:xlink="http://www.w3.org/1999/xlink" width="124.56pt" height="118.08pt" viewBox="0 0 124.56 118.08" xmlns="http://www.w3.org/2000/svg" version="1.1">
 <metadata>
  <rdf:RDF xmlns:dc="http://purl.org/dc/elements/1.1/" xmlns:cc="http://creativecommons.org/ns#" xmlns:rdf="http://www.w3.org/1999/02/22-rdf-syntax-ns#">
   <cc:Work>
    <dc:type rdf:resource="http://purl.org/dc/dcmitype/StillImage"/>
    <dc:date>2024-12-16T13:47:06.332117</dc:date>
    <dc:format>image/svg+xml</dc:format>
    <dc:creator>
     <cc:Agent>
      <dc:title>Matplotlib v3.10.0, https://matplotlib.org/</dc:title>
     </cc:Agent>
    </dc:creator>
   </cc:Work>
  </rdf:RDF>
 </metadata>
 <defs>
  <style type="text/css">*{stroke-linejoin: round; stroke-linecap: butt}</style>
 </defs>
 <g id="figure_1">
  <g id="patch_1">
   <path d="M 0 118.08 
L 124.56 118.08 
L 124.56 0 
L 0 0 
z
" style="fill: #ffffff"/>
  </g>
  <g id="axes_1">
   <g id="LineCollection_1">
    <path d="M 113.751074 59.169748 
L 78.191925 72.604175 
" clip-path="url(#pf2db7916f4)" style="fill: none; stroke: #000000"/>
    <path d="M 113.751074 59.169748 
L 85.290969 41.681417 
" clip-path="url(#pf2db7916f4)" style="fill: none; stroke: #000000"/>
    <path d="M 78.191925 72.604175 
L 41.095486 45.81856 
" clip-path="url(#pf2db7916f4)" style="fill: none; stroke: #000000"/>
    <path d="M 78.191925 72.604175 
L 85.290969 41.681417 
" clip-path="url(#pf2db7916f4)" style="fill: none; stroke: #000000"/>
    <path d="M 78.191925 72.604175 
L 84.162892 107.833388 
" clip-path="url(#pf2db7916f4)" style="fill: none; stroke: #000000"/>
    <path d="M 78.191925 72.604175 
L 35.42926 67.143467 
" clip-path="url(#pf2db7916f4)" style="fill: none; stroke: #000000"/>
    <path d="M 44.010726 24.770449 
L 41.095486 45.81856 
" clip-path="url(#pf2db7916f4)" style="fill: none; stroke: #000000"/>
    <path d="M 44.010726 24.770449 
L 85.290969 41.681417 
" clip-path="url(#pf2db7916f4)" style="fill: none; stroke: #000000"/>
    <path d="M 44.010726 24.770449 
L 10.808926 36.416742 
" clip-path="url(#pf2db7916f4)" style="fill: none; stroke: #000000"/>
    <path d="M 44.010726 24.770449 
L 35.42926 67.143467 
" clip-path="url(#pf2db7916f4)" style="fill: none; stroke: #000000"/>
    <path d="M 72.0093 10.246612 
L 58.711241 57.547289 
" clip-path="url(#pf2db7916f4)" style="fill: none; stroke: #000000"/>
    <path d="M 41.095486 45.81856 
L 10.808926 36.416742 
" clip-path="url(#pf2db7916f4)" style="fill: none; stroke: #000000"/>
    <path d="M 41.095486 45.81856 
L 58.711241 57.547289 
" clip-path="url(#pf2db7916f4)" style="fill: none; stroke: #000000"/>
    <path d="M 85.290969 41.681417 
L 58.711241 57.547289 
" clip-path="url(#pf2db7916f4)" style="fill: none; stroke: #000000"/>
    <path d="M 51.152464 95.471492 
L 84.162892 107.833388 
" clip-path="url(#pf2db7916f4)" style="fill: none; stroke: #000000"/>
    <path d="M 51.152464 95.471492 
L 35.42926 67.143467 
" clip-path="url(#pf2db7916f4)" style="fill: none; stroke: #000000"/>
    <path d="M 51.152464 95.471492 
L 58.711241 57.547289 
" clip-path="url(#pf2db7916f4)" style="fill: none; stroke: #000000"/>
    <path d="M 10.808926 36.416742 
L 35.42926 67.143467 
" clip-path="url(#pf2db7916f4)" style="fill: none; stroke: #000000"/>
    <path d="M 35.42926 67.143467 
L 12.161103 76.066512 
" clip-path="url(#pf2db7916f4)" style="fill: none; stroke: #000000"/>
    <path d="M 12.161103 76.066512 
L 58.711241 57.547289 
" clip-path="url(#pf2db7916f4)" style="fill: none; stroke: #000000"/>
   </g>
   <g id="PathCollection_1">
    <defs>
     <path id="C0_0_0d41a6b4f3" d="M 0 8.660254 
C 2.296726 8.660254 4.499694 7.747755 6.123724 6.123724 
C 7.747755 4.499694 8.660254 2.296726 8.660254 -0 
C 8.660254 -2.296726 7.747755 -4.499694 6.123724 -6.123724 
C 4.499694 -7.747755 2.296726 -8.660254 0 -8.660254 
C -2.296726 -8.660254 -4.499694 -7.747755 -6.123724 -6.123724 
C -7.747755 -4.499694 -8.660254 -2.296726 -8.660254 0 
C -8.660254 2.296726 -7.747755 4.499694 -6.123724 6.123724 
C -4.499694 7.747755 -2.296726 8.660254 0 8.660254 
z
"/>
    </defs>
    <g clip-path="url(#pf2db7916f4)">
     <use xlink:href="#C0_0_0d41a6b4f3" x="113.751074" y="59.169748" style="fill: #1f77b4; stroke: #1f77b4"/>
    </g>
    <g clip-path="url(#pf2db7916f4)">
     <use xlink:href="#C0_0_0d41a6b4f3" x="78.191925" y="72.604175" style="fill: #d62728; stroke: #d62728"/>
    </g>
    <g clip-path="url(#pf2db7916f4)">
     <use xlink:href="#C0_0_0d41a6b4f3" x="44.010726" y="24.770449" style="fill: #d62728; stroke: #d62728"/>
    </g>
    <g clip-path="url(#pf2db7916f4)">
     <use xlink:href="#C0_0_0d41a6b4f3" x="72.0093" y="10.246612" style="fill: #d62728; stroke: #d62728"/>
    </g>
    <g clip-path="url(#pf2db7916f4)">
     <use xlink:href="#C0_0_0d41a6b4f3" x="41.095486" y="45.81856" style="fill: #2ca02c; stroke: #2ca02c"/>
    </g>
    <g clip-path="url(#pf2db7916f4)">
     <use xlink:href="#C0_0_0d41a6b4f3" x="85.290969" y="41.681417" style="fill: #2ca02c; stroke: #2ca02c"/>
    </g>
    <g clip-path="url(#pf2db7916f4)">
     <use xlink:href="#C0_0_0d41a6b4f3" x="51.152464" y="95.471492" style="fill: #d62728; stroke: #d62728"/>
    </g>
    <g clip-path="url(#pf2db7916f4)">
     <use xlink:href="#C0_0_0d41a6b4f3" x="10.808926" y="36.416742" style="fill: #1f77b4; stroke: #1f77b4"/>
    </g>
    <g clip-path="url(#pf2db7916f4)">
     <use xlink:href="#C0_0_0d41a6b4f3" x="84.162892" y="107.833388" style="fill: #2ca02c; stroke: #2ca02c"/>
    </g>
    <g clip-path="url(#pf2db7916f4)">
     <use xlink:href="#C0_0_0d41a6b4f3" x="35.42926" y="67.143467" style="fill: #2ca02c; stroke: #2ca02c"/>
    </g>
    <g clip-path="url(#pf2db7916f4)">
     <use xlink:href="#C0_0_0d41a6b4f3" x="12.161103" y="76.066512" style="fill: #d62728; stroke: #d62728"/>
    </g>
    <g clip-path="url(#pf2db7916f4)">
     <use xlink:href="#C0_0_0d41a6b4f3" x="58.711241" y="57.547289" style="fill: #1f77b4; stroke: #1f77b4"/>
    </g>
   </g>
  </g>
 </g>
 <defs>
  <clipPath id="pf2db7916f4">
   <rect x="0" y="0" width="124.56" height="118.08"/>
  </clipPath>
 </defs>
</svg>
